# xmcd
#
# Track frame offsets:
#	150
#	18426
#	31781
#	50219
#	65922
#	81410
#	99157
#	117162
#	131369
#	150804
#	170187
#	190758
#	206731
#	224944
#	240817
#	258661
#
# Disc length: 3722 seconds
#
# Revision: 0
# Processed by: cddbd v1.5.1PL2 Copyright (c) Steve Scherf et al.
# Submitted via: audiograbber 1.81.02
#
DISCID=e20e8810
DTITLE=ΕΛΕΥΘΕΡΟΤΥΠΙΑ - ΡΕΜΠΕΤΙΚΟ ΣΕΡΓΙΑΝΙ - Νο1 - Μουρμουρικα και κουτσαβακικατ
DTITLE=ραγουδια(1928-1943)
DYEAR=1928
DGENRE=
TTITLE0=Ιωάννης Χαλκιάς - Μινόρε του τεκέ
TTITLE1=Αμαλία Βάκα - Μ' είπες να γίνω μάγκας
TTITLE2=Α.Κωστής - Τρούμπα
TTITLE3=Ανέστης Δελιάς - Κουτσαβάκι
TTITLE4=Αμαλία Βάκα - Ο μπερμπάντης
TTITLE5=Α.Κωστής - Ήσουνα ξυπόλητη
TTITLE6=Κώστας Δούσιας - Το μωρό
TTITLE7=Αντώνης Νταλγκάς - Μπαγλαμάδες
TTITLE8=Τέτος Δημητριάδης - Μουρμούρικο ζεϊμπέκικο
TTITLE9=Μαρίκα Παπαγκίκα - Κουτσαβάκι
TTITLE10=Γιωργος Κατσαρός - Έρχομαι τον τοίχο τοίχο
TTITLE11=Αντώνης Νταλγκάς - Ούζο
TTITLE12=Κώστας Δούσιας - Το καλογεράκι
TTITLE13=Μαρίκα Παπαγκίκα - Μανταλένα
TTITLE14=Α.Κωστής - Αδυνάτισα ο καημένος
TTITLE15=Γιώργος Κατσαρός - Και γιατί δεν μας το λες
EXTD=
EXTT0=
EXTT1=
EXTT2=
EXTT3=
EXTT4=
EXTT5=
EXTT6=
EXTT7=
EXTT8=
EXTT9=
EXTT10=
EXTT11=
EXTT12=
EXTT13=
EXTT14=
EXTT15=
PLAYORDER=
